<svg width="125" height="36" viewBox="0 0 125 36" fill="none" xmlns="http://www.w3.org/2000/svg">
<g clip-path="url(#clip0_3159_223837)">
<path d="M18.0457 0H106.455C116.414 0 124.5 8.06542 124.5 18C124.5 27.9346 116.414 36 106.454 36H18.0457C8.0859 36 0 27.9346 0 18C0 8.06542 8.0859 0 18.0457 0Z" fill="#CC1011"/>
<path d="M19.7358 11.3384V25.4048H16.5732V11.3384H19.7358Z" fill="white"/>
<path d="M33.4833 21.4259C33.4833 23.9981 31.7101 25.4048 28.2856 25.4048H22.1211V11.3384H27.8421C30.9852 11.3384 32.6971 12.6647 32.6971 15.1765C32.6971 16.4425 31.9916 17.4269 30.9442 17.9899C32.6367 18.6326 33.4825 19.9395 33.4825 21.4259H33.4833ZM25.2836 14.0111V16.9451H27.5398C28.6679 16.9451 29.4331 16.6234 29.4331 15.4982C29.4331 14.373 28.647 14.0111 27.5398 14.0111H25.2836ZM28.1445 22.7321C29.4338 22.7321 30.2192 22.2495 30.2192 21.0841C30.2192 19.9187 29.4331 19.416 28.1445 19.416H25.2836V22.7314H28.1445V22.7321Z" fill="white"/>
<path d="M38.3656 11.3384V25.4048H35.2031V11.3384H38.3656Z" fill="white"/>
<path d="M40.5652 22.4103L43.1035 20.9432C43.6672 22.1489 44.7759 22.9524 46.3265 22.9524C47.8772 22.9524 48.8649 22.3894 48.8649 21.5457C48.8649 20.702 48.019 20.3803 46.3265 19.9178L45.017 19.5559C42.2569 18.7524 40.9676 17.4261 40.9676 15.2151C40.9676 12.7837 43.1431 11.0754 46.3467 11.0754C48.7641 11.0754 50.8187 12.1001 51.7056 14.0095L49.1874 15.3157C48.6835 14.2709 47.636 13.7883 46.3668 13.7883C44.9566 13.7883 44.1711 14.291 44.1711 15.0543C44.1711 15.9785 45.0573 16.3203 46.3467 16.6822L47.6763 17.024C50.6178 17.7672 52.0274 19.1337 52.0274 21.3245C52.0274 23.9369 49.872 25.6646 46.3258 25.6646C43.8681 25.6646 41.6321 24.7203 40.5645 22.4095L40.5652 22.4103Z" fill="white"/>
<path d="M67.2367 20.6825C67.5189 21.6067 67.781 22.4914 67.781 22.7721H67.8616C67.8616 22.4906 68.0833 21.5866 68.3454 20.6825L71.1256 11.3382H72.9793L68.688 25.4247H66.9963L63.954 16.0409C63.6718 15.177 63.4299 14.3125 63.4299 14.0317H63.3493C63.3493 14.3132 63.1074 15.177 62.8252 16.0409L59.7829 25.4247H58.0904L53.7998 11.3382H55.673L58.4532 20.7019C58.7153 21.6261 58.937 22.5309 58.937 22.8116H59.0176C59.0176 22.5301 59.2797 21.6261 59.5619 20.722L62.584 11.3174H64.2362L67.2374 20.6818L67.2367 20.6825Z" fill="white"/>
<path d="M73.2461 20.3208C73.2461 17.2065 75.4425 15.0759 78.3631 15.0759C81.2838 15.0759 83.4802 17.2057 83.4802 20.3208C83.4802 23.4358 81.3039 25.6058 78.3631 25.6058C75.4223 25.6058 73.2461 23.4559 73.2461 20.3208ZM81.7279 20.3208C81.7279 18.0301 80.2975 16.6435 78.3639 16.6435C76.4302 16.6435 75.0199 18.0301 75.0199 20.3208C75.0199 22.6114 76.4504 24.0382 78.3639 24.0382C80.2773 24.0382 81.7279 22.6516 81.7279 20.3208Z" fill="white"/>
<path d="M90.7586 15.0759V16.9049H89.7917C88.3411 16.9049 87.3138 18.1105 87.3138 19.9596V25.4054H85.5811V15.2576H87.3138V17.0061C87.8984 15.72 88.9257 15.0774 90.1546 15.0774H90.7593L90.7586 15.0759Z" fill="white"/>
<path d="M95.4155 25.4047C93.6626 25.4047 92.7764 24.2795 92.7764 22.6918V10.3337H94.5092V22.5913C94.5092 23.4149 94.831 23.8774 95.6574 23.8774H96.5033V25.4047H95.4155Z" fill="white"/>
<path d="M106.195 10.3337H107.928V25.4047H106.195V23.4953C105.51 24.7211 104.341 25.5849 102.649 25.5849C99.9901 25.5849 97.9355 23.4551 97.9355 20.32C97.9355 17.1849 99.9901 15.0752 102.649 15.0752C104.342 15.0752 105.51 15.939 106.195 17.1849V10.3323V10.3337ZM106.235 20.3207C106.235 18.0099 104.885 16.6434 102.972 16.6434C101.058 16.6434 99.6885 18.0099 99.6885 20.3207C99.6885 22.6315 101.058 24.0181 102.972 24.0181C104.885 24.0181 106.235 22.6516 106.235 20.3207Z" fill="white"/>
</g>
<defs>
<clipPath id="clip0_3159_223837">
<rect width="124.5" height="36" fill="white"/>
</clipPath>
</defs>
</svg>
